<svg xmlns="http://www.w3.org/2000/svg" viewBox="-250 252 98 98"><path fill="#7893DC" d="M-189 328.5l-3.5 6.6 3.5 6.6-7.4-1.3-5.2 5.3-1-7.3-6.6-3.3 6.6-3.3 1-7.3 5.2 5.3z"/><path fill="#ff7ca6" d="M-218.9 324.8l-3.6 6.9 3.6 6.9-7.7-1.2-5.5 5.5-1.2-7.7-7-3.5 7-3.5 1.2-7.8 5.5 5.7z"/><path fill="#7893DC" d="M-227.4 291.4l-3.5 6.5 3.5 6.7-7.4-1.2-5.2 5.3-1.2-7.4-6.7-3.4 6.7-3.3 1.2-7.4 5.2 5.4z"/><path fill="#ff7ca6" d="M-230 284c-.5 0-1-.2-1.4-.6-.8-.7-.8-1.9-.1-2.7l.1-.1 6-6c.8-.8 2.1-.8 2.9 0 .7.8.7 2.1 0 2.9l-6.1 5.9c-.4.4-.9.6-1.4.6zm11.3-11.2c-.5 0-1-.2-1.4-.6-.8-.7-.8-1.9-.1-2.7l.1-.1 4.6-4.6c.7-.9 1.9-1.1 2.8-.4s1.1 1.9.4 2.8c-.1.2-.2.3-.4.4l-4.6 4.6c-.4.4-.9.6-1.4.6zm9.1-9.1c-.5 0-1-.2-1.4-.6-.8-.7-.8-1.9-.1-2.7l.1-.1 3.3-3.4c.8-.8 2-.8 2.8-.1.8.8.8 2 .1 2.9l-3.3 3.4c-.4.4-.9.6-1.5.6zm-7.8 28c-.5 0-1-.2-1.4-.6-.8-.8-.8-2.1 0-2.9l10.9-11c.8-.7 2-.7 2.8 0 .8.8.8 2 .1 2.9l-10.9 11c-.4.4-.9.6-1.5.6zm16.9-16.9c-.5 0-1-.2-1.4-.6-.8-.7-.8-1.9-.1-2.7l.1-.1 8.1-8.2c.8-.8 2-.8 2.8-.1.8.8.8 2.1 0 2.9l-8.1 8.2c-.4.4-.9.6-1.4.6z"/><path fill="#7893DC" d="M-219.3 320.5c-.5 0-1-.2-1.4-.5-.8-.8-.8-2.1 0-2.9l18.9-18.9c.9-.7 2.1-.5 2.8.4.5.7.5 1.7 0 2.4l-18.9 19c-.4.3-.9.5-1.4.5zm22.6-22.6c-.5 0-1-.2-1.4-.6-.8-.7-.8-1.9-.1-2.7l.1-.1 15.9-15.9c.8-.7 2-.7 2.8 0 .8.8.8 2.1 0 2.9l-15.9 15.8c-.4.4-.9.6-1.4.6z"/><path fill="#ff7ca6" d="M-195.5 322.2c-.5 0-1-.2-1.4-.6-.7-.8-.7-2 0-2.8l11-11c.8-.8 2.1-.8 2.9 0 .7.8.7 2 0 2.8l-11 11c-.4.4-.9.6-1.5.6zm16.3-16.1c-.5 0-1-.2-1.4-.6-.8-.7-.8-1.9-.1-2.7l.1-.1 4.6-4.7c.7-.9 1.9-1.1 2.8-.4s1.1 1.9.4 2.8c-.1.2-.2.3-.4.4l-4.6 4.7c-.4.4-.9.6-1.4.6zm-1.5 21.7c-.5 0-1-.2-1.4-.6-.8-.7-.8-1.9-.1-2.7l.1-.1 10.9-11.1c.8-.8 2.1-.8 2.9 0 .8.7.8 1.9.1 2.7l-.1.1-11 11.1c-.4.4-.9.6-1.4.6zm15.5-15.6c-.5 0-1-.2-1.4-.6-.8-.8-.8-2.1 0-2.9l9-8.9c.8-.8 2.1-.8 2.9 0 .7.8.7 2 0 2.8l-9.1 9c-.4.4-.9.6-1.4.6z"/></svg>