<?xml version="1.0" encoding="UTF-8"?><!DOCTYPE svg PUBLIC "-//W3C//DTD SVG 1.1//EN" "http://www.w3.org/Graphics/SVG/1.1/DTD/svg11.dtd"><svg xmlns="http://www.w3.org/2000/svg" xmlns:xlink="http://www.w3.org/1999/xlink" version="1.1" id="Unicorn" x="0px" y="0px" width="512px" height="512px" viewBox="0 0 512 512" xml:space="preserve"><path fill="#819FEA" d="M145.597 412.963c-4.599-28.574-10.412-55.432-17.131-66.629l-38.882-8.924s22.65 76.807 20.828 157.457c-.143 6.336 4.975 11.536 11.312 11.536h13.099c4.188 0 7.624-3.283 7.778-7.468.64-17.384 1.825-51.675 2.996-85.972z"/><path fill="#FF7CA6" d="M145.027 162.835c.505-1.896 3.252-1.867 3.709.042 2.208 9.23 9.286 20.787 27.536 26.652 36.493 11.73 72.028 20.397 71.391 66.929 0 0-126.069-5.784-102.636-93.623z"/><path fill="#FFC6D7" d="M326.703 287.055s20.398-21.673 48.444-21.673h.08c25.747 0 47.052 20.029 48.64 45.728l3.386 54.784c.45 7.277 6.482 12.949 13.773 12.949h.001a13.8 13.8 0 0 0 13.516-11.018l.058-.279a11.748 11.748 0 0 1 12.677-9.321h.001a11.734 11.734 0 0 1 10.433 9.812c3.295 20.445 5.405 68.812-48.383 68.812 0 0-63.742.638-70.116-85.732l-32.51-64.062z"/><path fill="#E6F0FF" d="M365.231 332.566c.049-2.468-.124-4.938-.709-7.334-7.763-31.826-41.349-62.293-120.274-76.567-54.179-9.798-78.218-30.66-88.279-43.646-4.374-5.646-6.631-12.633-6.632-19.776 0-11.622 6.127-22.423 16.181-28.253 23.664-13.722 48.36-30.432 61.722-39.706 5.523-3.834 9.413-9.818 9.966-16.52 1.062-12.865-9.065-23.635-21.708-23.635h-83.574l-8.638-23.254c-1.307-3.518-5.912-4.323-8.365-1.482C98.894 70.95 95.352 97.157 95.352 97.157S53.557 136.34 45.72 244.312c-7.201 99.22 66.608 113.028 72.698 113.998-1.181 23.978-1.886 100.035 32.634 145.225 1.403 1.837 3.624 2.869 5.936 2.869h20.371c5.904 0 9.476-6.47 6.355-11.481-7.667-12.313-17.979-34.484-19.553-66.322-2.182-44.162 11.961-53.267 25.965-60.225a4615.369 4615.369 0 0 1 59.347 10.029c15.681 3.66 37.011 7.005 51.556 9.094 9.517 1.367 16.906 9.002 17.897 18.565 3.992 38.535 10.585 79.291 13.109 94.322a7.214 7.214 0 0 0 7.133 6.017h12.593c4.307 0 7.709-3.742 7.188-8.018-5.929-48.624 1.107-102.565 1.107-102.565 4.129-28.904 4.995-54.002 5.175-63.254z"/><path fill="#FFC6D7" d="M97.87 85.863s-54.818 17.615-64.38 75.62c0 0-6.374 46.532 21.673 61.83l48.443-126.846-5.736-10.604z"/><path fill="#FF7CA6" d="M97.87 85.863s-7.061 2.283-16.543 7.862c3.355 52.293-22.897 82.679-48.2 86.348 1.028 14.747 5.665 34.31 22.036 43.24l48.443-126.846-5.736-10.604z"/><path fill="#819FEA" d="M259.774 375.655s22.176 52.887 19.452 124.021c-.14 3.662 2.739 6.727 6.403 6.727h14.277a6.4 6.4 0 0 0 6.413-6.35c.157-19.631 1.521-79.922 12.097-111.648l-58.642-12.75z"/><path fill="#C7DAFF" d="M123.285 73.519l66.56-67.042c2.229-2.247 5.936.181 4.768 3.123l-29.176 73.48h-50.993l8.841-9.561z"/><path fill="#819FEA" d="M176.833 54.377l4.523-11.391-10.207-17.679-7.018 7.069z"/><path fill="#819FEA" d="M156.303 83.08h9.134l.8-2.018-18.547-32.125-7.018 7.069z"/><circle fill="#819FEA" cx="152.051" cy="102.84" r="7.012"/><path fill="#C7DAFF" d="M212.794 372.111a4563.926 4563.926 0 0 1 36.679 6.293c15.681 3.66 37.011 7.005 51.556 9.094 9.517 1.367 16.906 9.002 17.897 18.565 3.992 38.535 10.585 79.291 13.109 94.322a7.215 7.215 0 0 0 7.133 6.017l12.593.001c4.307 0 7.709-3.744 7.188-8.019-5.929-48.624 1.107-102.565 1.107-102.565 4.129-28.904 4.995-54.001 5.176-63.253.049-2.468-.124-4.938-.709-7.334-3.888-15.941-14.257-31.539-33.553-44.934 1.369 35.462-12.784 88.659-118.176 91.813z"/><path fill="#C7DAFF" d="M190.126 368.375s-30.737-6.561-38.075 29.172c0 0-9.614 60.03 19.037 95.763 0 0 4.357 6.708.141 13.094h6.13c5.904 0 9.476-6.47 6.355-11.481-7.667-12.313-17.979-34.484-19.553-66.322-2.182-44.163 11.961-53.268 25.965-60.226z"/><path fill="#FF7CA6" d="M477.711 368.036c-1.143-7.084-8.496-11.909-16.206-9.02-3.54 1.327-6.075 4.51-6.839 8.213-1.196 5.804-5.717 10.611-11.582 11.464-8.181 1.188-15.34-4.848-15.831-12.8l-3.386-54.784c-.459-7.425-2.605-14.35-5.987-20.48 2.387 17.806 2.574 51.076-24.079 70.469-6.199 4.51-10.127 11.593-9.851 19.254.47 13.013 4.699 33.166 23.182 51.447 12.339 5.123 22.196 5.049 22.196 5.049 53.788 0 51.678-48.367 48.383-68.812z"/><path fill="#819FEA" d="M122.315 80.82l-3.481-12.185c-.591-2.068-3.396-2.43-4.45-.555-2.684 4.775-6.335 13.013-7.167 23.557l15.098-10.817z"/><metadata><rdf:RDF xmlns:rdf="http://www.w3.org/1999/02/22-rdf-syntax-ns#" xmlns:rdfs="http://www.w3.org/2000/01/rdf-schema#" xmlns:dc="http://purl.org/dc/elements/1.1/"><rdf:Description about="https://iconscout.com/legal#licenses" dc:title="unicorn,fairytale,magic,horse,animal" dc:description="unicorn,fairytale,magic,horse,animal" dc:publisher="Iconscout" dc:date="2018-06-29" dc:format="image/svg+xml" dc:language="en"><dc:creator><rdf:Bag><rdf:li>Chanut Is Industries</rdf:li></rdf:Bag></dc:creator></rdf:Description></rdf:RDF></metadata></svg>